<?xml version="1.0" encoding="UTF-8" standalone="no"?>
<!-- Created with Inkscape (http://www.inkscape.org/) -->

<svg xmlns:dc="http://purl.org/dc/elements/1.1/" xmlns:cc="http://creativecommons.org/ns#" xmlns:rdf="http://www.w3.org/1999/02/22-rdf-syntax-ns#" xmlns:svg="http://www.w3.org/2000/svg" xmlns="http://www.w3.org/2000/svg" xmlns:sodipodi="http://sodipodi.sourceforge.net/DTD/sodipodi-0.dtd" xmlns:inkscape="http://www.inkscape.org/namespaces/inkscape" version="1.1" id="svg5692" width="278.82059" height="99.671501" viewBox="0 0 278.82059 99.671501" sodipodi:docname="arrows4.svg" inkscape:version="0.92.4 (5da689c313, 2019-01-14)">
  <metadata id="metadata5698">
    <rdf:RDF>
      <cc:Work rdf:about="">
        <dc:format>image/svg+xml</dc:format>
        <dc:type rdf:resource="http://purl.org/dc/dcmitype/StillImage" />
        <dc:title></dc:title>
      </cc:Work>
    </rdf:RDF>
  </metadata>
  <defs id="defs5696" />
  <sodipodi:namedview pagecolor="#ffffff" bordercolor="#666666" borderopacity="1" objecttolerance="10" gridtolerance="10" guidetolerance="10" inkscape:pageopacity="0" inkscape:pageshadow="2" inkscape:window-width="1461" inkscape:window-height="705" id="namedview5694" showgrid="false" inkscape:zoom="1.2455516" inkscape:cx="140.12343" inkscape:cy="124.65086" inkscape:window-x="0" inkscape:window-y="0" inkscape:window-maximized="0" inkscape:current-layer="svg5692" />
  <path style="fill:#000000" d="m 44.320586,97.863667 c -1.65,-1.03166 -12.3375,-11.311806 -23.75,-22.844766 C -6.9585902,47.19915 -7.0473332,52.348976 21.455672,23.656517 33.35497,11.678128 44.371235,1.347234 45.936261,0.69898404 c 3.672002,-1.52100004 7.437158,-0.53763 10.469556,2.73437996 2.270681,2.450104 2.414769,3.312896 2.414769,14.459555 v 11.853977 h 80.500004 80.5 V 17.892919 c 0,-11.146659 0.14409,-12.009451 2.41477,-14.459555 3.0324,-3.27200996 6.79755,-4.25538 10.46955,-2.73437996 1.56503,0.64824996 12.5813,10.97914396 24.48059,22.95753296 21.46721,21.60989 21.63509,21.812347 21.63509,26.090379 0,4.278032 -0.16788,4.480489 -21.63509,26.090379 -11.89929,11.978389 -22.91556,22.309282 -24.48059,22.957536 -3.672,1.520999 -7.43715,0.53763 -10.46955,-2.734381 -2.27068,-2.450106 -2.41477,-3.312898 -2.41477,-14.459557 V 69.746896 h -80.5 -80.500004 l -0.02224,11.75 c -0.02369,12.51998 -0.711498,14.601239 -5.662023,17.132961 -3.097873,1.584273 -5.37273,1.386563 -8.815741,-0.76619 z" id="path6288" inkscape:connector-curvature="0" />
</svg>
